<?xml version="1.0" encoding="UTF-8"?>
<svg width="374px" height="294px" viewBox="0 0 374 294" version="1.1" xmlns="http://www.w3.org/2000/svg" xmlns:xlink="http://www.w3.org/1999/xlink">
    <!-- Generator: Sketch 52.6 (67491) - http://www.bohemiancoding.com/sketch -->
    <title>Untitled</title>
    <desc>Created with Sketch.</desc>
    <g id="Page-1" stroke="none" stroke-width="1" fill="none" fill-rule="evenodd">
        <g id="envelope" fill="#FFFFFF">
            <path d="M35.8966198,90.5820657 C40.6276694,93.9207118 54.8888016,103.836498 78.6807473,120.324307 C102.473424,136.812116 120.700246,149.507305 133.361944,158.410604 C134.753042,159.386539 137.708486,161.508008 142.229738,164.777937 C146.751721,168.050058 150.509075,170.694219 153.498876,172.71115 C156.49087,174.727351 160.107872,176.989179 164.353536,179.492981 C168.597737,181.99459 172.598515,183.876279 176.355138,185.121966 C180.112492,186.377887 183.590603,187 186.790202,187 L187,187 L187.210529,187 C190.410128,187 193.889701,186.377156 197.647055,185.121966 C201.402216,183.876279 205.406649,181.992396 209.647195,179.492981 C213.889935,176.986255 217.506937,174.72662 220.498931,172.71115 C223.490925,170.694219 227.245355,168.050058 231.7688,164.777937 C236.289321,161.505084 239.24842,159.386539 240.639518,158.410604 C253.437914,149.507305 285.998968,126.895599 338.312447,90.5776795 C348.468999,83.4844273 356.954478,74.925446 363.771079,64.9065836 C370.592796,54.8921075 374,44.3863746 374,33.395233 C374,24.2104839 370.693675,16.3481808 364.083948,9.80905469 C357.474952,3.2684665 349.647375,0 340.606334,0 L33.3914735,0 C22.6786285,0 14.4343798,3.61717116 8.66018928,10.8515135 C2.88672976,18.0873179 0,27.1317079 0,37.9839524 C0,46.7498172 3.82753027,56.2489122 11.4789358,66.4753891 C19.1296103,76.7025969 27.2715186,84.7388869 35.8966198,90.5820657 Z" id="Path"></path>
            <path d="M353.126258,113.1471 C307.494233,144.016459 272.844772,168.007046 249.194687,185.113745 C241.264054,190.952117 234.830511,195.509715 229.889674,198.775579 C224.948836,202.043635 218.377865,205.3811 210.167259,208.786513 C201.959576,212.197039 194.310378,213.897188 187.213087,213.897188 L187.000366,213.897188 L186.790568,213.897188 C179.694739,213.897188 172.041155,212.197039 163.833472,208.786513 C155.62579,205.3811 149.050433,202.043635 144.111057,198.775579 C139.173144,195.509715 132.737408,190.952117 124.807506,185.113745 C106.022966,171.347433 71.4480667,147.355385 21.0813464,113.1471 C13.1485203,107.86619 6.12213585,101.813017 0,95 L0,260.620236 C0,269.80411 3.26830679,277.657527 9.80857539,284.19364 C16.347382,290.731944 24.2100319,294 33.3936012,294 L340.608592,294 C349.789968,294 357.651887,290.731944 364.191425,284.19364 C370.733155,277.655335 374,269.80484 374,260.620236 L374,95 C368.016023,101.672007 361.061277,107.725181 353.126258,113.1471 Z" id="Path"></path>
        </g>
    </g>
</svg>