<?xml version="1.0" encoding="UTF-8"?>
<svg width="410px" height="391px" viewBox="0 0 410 391" version="1.1" xmlns="http://www.w3.org/2000/svg" xmlns:xlink="http://www.w3.org/1999/xlink">
    <!-- Generator: Sketch 52.6 (67491) - http://www.bohemiancoding.com/sketch -->
    <title>Untitled</title>
    <desc>Created with Sketch.</desc>
    <g id="Page-1" stroke="none" stroke-width="1" fill="none" fill-rule="evenodd">
        <g id="linkedin-logo" fill="#FFFFFF" fill-rule="nonzero">
            <path d="M410,239.72179 L410,391 L322.123724,391 L322.123724,249.853492 C322.123724,214.396339 309.413369,190.198218 277.60507,190.198218 C253.323468,190.198218 238.873469,206.505978 232.516385,222.280991 C230.198132,227.920497 229.601411,235.76995 229.601411,243.664116 L229.601411,391 L141.695585,391 C141.695585,391 142.879496,151.944144 141.695585,127.176174 L229.592832,127.176174 L229.592832,164.572146 C229.414578,164.851838 229.182943,165.15341 229.015175,165.424541 L229.592832,165.424541 L229.592832,164.572146 C241.27084,146.621432 262.126538,120.978236 308.808069,120.978236 C366.643332,120.977285 410,158.685294 410,239.72179 Z M49.7423492,0 C19.6698805,0 0,19.6859456 0,45.5736347 C0,70.897183 19.1008028,91.180566 48.5755969,91.180566 L49.1627859,91.180566 C79.8176775,91.180566 98.8822576,70.9009883 98.8822576,45.5736347 C98.3046008,19.6859456 79.8176775,0 49.7423492,0 Z M5.22083526,391 L93.0932979,391 L93.0932979,127.176174 L5.22083526,127.176174 L5.22083526,391 Z" id="LinkedIn"></path>
        </g>
    </g>
</svg>