<svg xmlns="http://www.w3.org/2000/svg" width="728" height="823" viewBox="0 0 728 823">
  <g id="Newsew_logo_2" data-name="Newsew logo 2" transform="translate(139 -1558)">
    <path id="Exclusion_1" data-name="Exclusion 1" d="M-631,412h-544a27.81,27.81,0,0,1-10.9-2.2,27.91,27.91,0,0,1-8.9-6,27.905,27.905,0,0,1-6-8.9A27.83,27.83,0,0,1-1203,384V28a27.829,27.829,0,0,1,2.2-10.9,27.9,27.9,0,0,1,6-8.9,27.905,27.905,0,0,1,8.9-6A27.824,27.824,0,0,1-1175,0h544a27.825,27.825,0,0,1,10.9,2.2,27.9,27.9,0,0,1,8.9,6,27.907,27.907,0,0,1,6,8.9A27.833,27.833,0,0,1-603,28V384a27.833,27.833,0,0,1-2.2,10.9,27.909,27.909,0,0,1-6,8.9,27.9,27.9,0,0,1-8.9,6A27.819,27.819,0,0,1-631,412Zm-423.052-272.493a80.613,80.613,0,0,0-16.123,1.625,79.593,79.593,0,0,0-15.017,4.661,79.972,79.972,0,0,0-13.589,7.376,80.572,80.572,0,0,0-11.841,9.769,80.57,80.57,0,0,0-9.769,11.839,80.04,80.04,0,0,0-7.375,13.589,79.593,79.593,0,0,0-4.662,15.017,80.6,80.6,0,0,0-1.624,16.123,80.6,80.6,0,0,0,1.624,16.123,79.6,79.6,0,0,0,4.662,15.017,80,80,0,0,0,7.375,13.589,80.562,80.562,0,0,0,9.769,11.839,80.491,80.491,0,0,0,11.841,9.769,79.969,79.969,0,0,0,13.589,7.376,79.663,79.663,0,0,0,15.017,4.661,80.605,80.605,0,0,0,16.123,1.625,80.609,80.609,0,0,0,16.124-1.625,79.653,79.653,0,0,0,15.016-4.661,80.039,80.039,0,0,0,13.589-7.376,80.454,80.454,0,0,0,11.84-9.769,80.569,80.569,0,0,0,9.769-11.839,80.052,80.052,0,0,0,7.376-13.589,79.662,79.662,0,0,0,4.662-15.017,80.612,80.612,0,0,0,1.625-16.123,80.611,80.611,0,0,0-1.625-16.123,79.658,79.658,0,0,0-4.662-15.017,80.05,80.05,0,0,0-7.376-13.589,80.628,80.628,0,0,0-9.769-11.839,80.576,80.576,0,0,0-11.84-9.769,80.038,80.038,0,0,0-13.589-7.376,79.665,79.665,0,0,0-15.016-4.661A80.616,80.616,0,0,0-1054.052,139.507Zm300.808-27.983a80.607,80.607,0,0,0-16.123,1.625,79.658,79.658,0,0,0-15.016,4.661,79.988,79.988,0,0,0-13.589,7.376,80.557,80.557,0,0,0-11.84,9.769,80.621,80.621,0,0,0-9.769,11.84,80.044,80.044,0,0,0-7.375,13.589,79.582,79.582,0,0,0-4.662,15.017,80.609,80.609,0,0,0-1.625,16.123,80.608,80.608,0,0,0,1.625,16.123,79.576,79.576,0,0,0,4.662,15.017,80.044,80.044,0,0,0,7.375,13.589,80.667,80.667,0,0,0,9.769,11.84,80.643,80.643,0,0,0,11.84,9.769,79.979,79.979,0,0,0,13.589,7.376,79.591,79.591,0,0,0,15.016,4.661,80.6,80.6,0,0,0,16.123,1.625,80.6,80.6,0,0,0,16.123-1.625,79.648,79.648,0,0,0,15.016-4.661,79.979,79.979,0,0,0,13.589-7.376,80.586,80.586,0,0,0,11.839-9.769,80.614,80.614,0,0,0,9.769-11.84,80.04,80.04,0,0,0,7.375-13.589,79.656,79.656,0,0,0,4.662-15.017,80.611,80.611,0,0,0,1.625-16.123,80.612,80.612,0,0,0-1.625-16.123,79.657,79.657,0,0,0-4.662-15.017,80.04,80.04,0,0,0-7.375-13.589,80.571,80.571,0,0,0-9.769-11.84,80.56,80.56,0,0,0-11.839-9.769,79.994,79.994,0,0,0-13.589-7.376,79.657,79.657,0,0,0-15.016-4.661A80.611,80.611,0,0,0-753.244,111.524Zm-292.734-4.51c26.928,0,49.961,5.415,68.459,16.094-24.414-24.414-50.446-36.793-77.375-36.793a94.306,94.306,0,0,0-31.936,5.749,119.16,119.16,0,0,0-25.036,12.648,134.925,134.925,0,0,0-16.339,12.648c-3.7,3.358-5.759,5.652-5.845,5.749l.024-.011a252.608,252.608,0,0,1,26.621-8.036c9.417-2.336,18.872-4.2,28.1-5.532A234.039,234.039,0,0,1-1045.978,107.015Zm312.81-63.868A88.689,88.689,0,0,0-754.3,45.685a90.326,90.326,0,0,0-18.286,6.687,108.1,108.1,0,0,0-28.066,20.287,134.669,134.669,0,0,0-16.785,20.286,96.314,96.314,0,0,0-5.578,9.22.273.273,0,0,1,.035-.027c.978-.7,4.619-3.275,10.39-6.875a298.757,298.757,0,0,1,27.555-15.186,249.482,249.482,0,0,1,39.1-15.186c15.856-4.58,31.016-6.9,45.061-6.9a112.376,112.376,0,0,1,29.057,3.665,148.449,148.449,0,0,0-32.673-14.259,103.343,103.343,0,0,0-28.664-4.246Z" transform="translate(1128 1700)" fill="#fff"/>
    <g id="Eyes" transform="translate(-6.052 1726.112)">
      <ellipse id="Ellipse_6" data-name="Ellipse 6" cx="27.982" cy="27.982" rx="27.982" ry="27.982" transform="translate(53.166 166.561)" fill="#fff"/>
      <ellipse id="Ellipse_7" data-name="Ellipse 7" cx="27.982" cy="27.982" rx="27.982" ry="27.982" transform="translate(338.584 152.57)" fill="#fff"/>
    </g>
    <circle id="Antenna" cx="36" cy="36" r="36" transform="translate(189 1558)" fill="#fff"/>
    <path id="Right_ear" data-name="Right ear" d="M0,120H40A40,40,0,0,1,0,160Zm0,0V0A40,40,0,0,1,40,40v80Z" transform="translate(549 1825.908)" fill="#fff"/>
    <path id="Left_ear" data-name="Left ear" d="M0,40H40A40,40,0,0,0,0,0Zm0,0V160a40,40,0,0,0,40-40V40Z" transform="translate(-99 1986.417) rotate(180)" fill="#fff"/>
    <g id="Newspaper_2" data-name="Newspaper 2" transform="translate(-54 -603)">
      <g id="Union_2" data-name="Union 2" transform="translate(16 2624)" fill="#fff">
        <path d="M 497.999755859375 355 L 45.9998893737793 355 L 27.99988746643066 355 C 24.89274597167969 355 21.88124465942383 354.392578125 19.04888916015625 353.194580078125 C 16.3106746673584 352.0364379882812 13.85046005249023 350.3773498535156 11.73660278320312 348.263427734375 C 9.622673988342285 346.1495666503906 7.963602542877197 343.6893615722656 6.805459976196289 340.9511413574219 C 5.607459545135498 338.1187744140625 5.000030994415283 335.1072998046875 5.000030994415283 332.0001525878906 L 5.000030994415283 88.00021362304688 C 5.000030994415283 84.89307403564453 5.607459545135498 81.88150024414062 6.805459976196289 79.04921722412109 C 7.963602542877197 76.31099700927734 9.622673988342285 73.85078430175781 11.73660278320312 71.73685455322266 C 13.85046005249023 69.6229248046875 16.3106746673584 67.96385955810547 19.04888916015625 66.80571746826172 C 21.88124465942383 65.60771179199219 24.89274597167969 65.00028228759766 27.99988746643066 65.00028228759766 L 45.9998893737793 65.00028228759766 L 50.9998893737793 65.00028228759766 L 50.9998893737793 60.00028610229492 L 50.9998893737793 27.99992942810059 C 50.9998893737793 24.89278602600098 51.60731506347656 21.88128662109375 52.80531692504883 19.04892921447754 C 53.96345901489258 16.31071472167969 55.62253189086914 13.85050010681152 57.7364616394043 11.73657131195068 C 59.85038757324219 9.622642517089844 62.31060409545898 7.963571548461914 65.04882049560547 6.805428504943848 C 67.88117218017578 5.607428550720215 70.89267730712891 5 73.99981689453125 5 L 497.999755859375 5 C 501.1071166992188 5 504.1188049316406 5.607428550720215 506.951171875 6.805428504943848 C 509.6893920898438 7.963571548461914 512.1495361328125 9.622642517089844 514.2633666992188 11.73657131195068 C 516.3772583007812 13.85042858123779 518.0362548828125 16.31064224243164 519.1943969726562 19.04885673522949 C 520.3922729492188 21.88114356994629 520.9996948242188 24.89271354675293 520.9996948242188 27.99992942810059 L 520.9996948242188 332.0001525878906 C 520.9996948242188 335.1073608398438 520.3922729492188 338.1189270019531 519.1943969726562 340.9512023925781 C 518.0362548828125 343.6894226074219 516.3772583007812 346.1496276855469 514.2633666992188 348.2634887695312 C 512.1495971679688 350.3773498535156 509.6893920898438 352.0364379882812 506.951171875 353.194580078125 C 504.1188049316406 354.392578125 501.1071166992188 355 497.999755859375 355 Z" stroke="none"/>
        <path d="M 497.9997253417969 350 C 507.9248962402344 350 515.9996337890625 341.92529296875 515.9996337890625 332.0001525878906 L 515.9996337890625 27.99992370605469 C 515.9996337890625 18.07476997375488 507.9248962402344 10 497.9997253417969 10 L 73.99981689453125 10 C 64.07466125488281 10 55.99989318847656 18.07476997375488 55.99989318847656 27.99992370605469 L 55.99989318847656 60.00030899047852 L 55.99989318847656 70.00030517578125 L 45.99989318847656 70.00030517578125 L 27.99989318847656 70.00030517578125 C 18.07473945617676 70.00030517578125 10.00004768371582 78.0750732421875 10.00004768371582 88.00022888183594 L 10.00004768371582 332.0001525878906 C 10.00004768371582 341.92529296875 18.07473945617676 350 27.99989318847656 350 L 45.99989318847656 350 L 497.9997253417969 350 M 497.9997253417969 360 L 45.99989318847656 360 L 27.99989318847656 360 C 12.53612422943115 360 4.76637615065556e-05 347.4639282226562 4.76637615065556e-05 332.0001525878906 L 4.76637615065556e-05 88.00022888183594 C 4.76637615065556e-05 72.53638458251953 12.53612422943115 60.00030899047852 27.99989318847656 60.00030899047852 L 45.99989318847656 60.00030899047852 C 45.99989318847656 40.24353790283203 45.99989318847656 27.99992370605469 45.99989318847656 27.99992370605469 C 45.99989318847656 12.53607654571533 58.53604888916016 0 73.99981689453125 0 L 497.9997253417969 0 C 513.4644165039062 0 525.9996337890625 12.53607654571533 525.9996337890625 27.99992370605469 L 525.9996337890625 332.0001525878906 C 525.9996337890625 347.4639282226562 513.4644165039062 360 497.9997253417969 360 Z" stroke="none" fill="#26262c"/>
      </g>
      <g id="Union_3" data-name="Union 3" transform="translate(16 2754)" fill="#fff">
        <path d="M 27.99990081787109 225.0004119873047 C 24.89277648925781 225.0004119873047 21.88123321533203 224.3930053710938 19.04890060424805 223.1950073242188 C 16.31069183349609 222.0368347167969 13.85048389434814 220.3777160644531 11.73660945892334 218.2637939453125 C 9.622692108154297 216.1498413085938 7.963609218597412 213.6895446777344 6.805400848388672 210.9512023925781 C 5.607400894165039 208.1187438964844 4.999984264373779 205.1069946289062 4.999984264373779 201.9996337890625 L 4.999984264373779 -43.00020599365234 C 4.999984264373779 -46.10733032226562 5.607400894165039 -49.11887359619141 6.805400848388672 -51.95120620727539 C 7.96356725692749 -54.68941497802734 9.622651100158691 -57.14962387084961 11.73656749725342 -59.26354217529297 C 13.85044288635254 -61.37741470336914 16.31069183349609 -63.0364990234375 19.04890060424805 -64.19466400146484 C 21.88123321533203 -65.39266204833984 24.89277648925781 -66.00008392333984 27.99990081787109 -66.00008392333984 L 50.99981689453125 -66.00008392333984 L 50.99981689453125 201.9996337890625 C 50.99981689453125 205.1069946289062 50.39240264892578 208.1187438964844 49.19440078735352 210.9512023925781 C 48.03619384765625 213.6895446777344 46.37710952758789 216.1498413085938 44.26319122314453 218.2637939453125 C 42.14931869506836 220.3777160644531 39.68910980224609 222.0368347167969 36.95090103149414 223.1950073242188 C 34.11856842041016 224.3930053710938 31.10702514648438 225.0004119873047 27.99990081787109 225.0004119873047 Z" stroke="none"/>
        <path d="M 27.99990081787109 220.0004119873047 C 37.92510223388672 220.0004119873047 45.99980163574219 211.9252624511719 45.99980163574219 201.9996185302734 L 45.99980163574219 -61.00008392333984 L 27.99990081787109 -61.00008392333984 C 18.0747013092041 -61.00008392333984 10.00000095367432 -52.92538070678711 10.00000095367432 -43.00018310546875 L 10.00000095367432 201.9996185302734 C 10.00000095367432 211.9252624511719 18.0747013092041 220.0004119873047 27.99990081787109 220.0004119873047 M 27.99990081787109 230.0004119873047 C 12.53610038757324 230.0004119873047 8.178710686479462e-07 217.4643249511719 8.178710686479462e-07 201.9996185302734 L 8.178710686479462e-07 -43.00018310546875 C 8.178710686479462e-07 -58.46398162841797 12.53610038757324 -71.00008392333984 27.99990081787109 -71.00008392333984 L 55.99980163574219 -71.00008392333984 L 55.99980163574219 201.9996185302734 C 55.99980163574219 217.4643249511719 43.46369934082031 230.0004119873047 27.99990081787109 230.0004119873047 Z" stroke="none" fill="#26262c"/>
      </g>
      <line id="Line_3" data-name="Line 3" x2="185" transform="translate(301.5 2830.5)" fill="none" stroke="#26262c" stroke-linecap="round" stroke-width="10"/>
      <line id="Line_14" data-name="Line 14" x2="185" transform="translate(301.5 2780.5)" fill="none" stroke="#26262c" stroke-linecap="round" stroke-width="10"/>
      <line id="Line_15" data-name="Line 15" x2="185" transform="translate(301.5 2730.5)" fill="none" stroke="#26262c" stroke-linecap="round" stroke-width="10"/>
      <line id="Line_16" data-name="Line 16" x2="185" transform="translate(302.5 2680.5)" fill="none" stroke="#26262c" stroke-linecap="round" stroke-width="10"/>
      <line id="Line_8" data-name="Line 8" x2="369" transform="translate(117.5 2928.5)" fill="none" stroke="#26262c" stroke-linecap="round" stroke-width="10"/>
      <path id="Path_35" data-name="Path 35" d="M0,1.254H369" transform="translate(117.5 2878.246)" fill="none" stroke="#26262c" stroke-linecap="round" stroke-width="10"/>
      <path id="Path_34" data-name="Path 34" d="M52.739-6.777V-89.922c0-7.37-.232-15.431-.695-22.111l75.5,105.256H160.2V-168H125.458v83.145c0,7.37.232,15.431.695,22.111L50.654-168H18V-6.777Z" transform="translate(94 2841.777)" fill="#26262c"/>
    </g>
  </g>
</svg>
