<?xml version="1.0" encoding="UTF-8"?>
<svg width="486px" height="391px" viewBox="0 0 486 391" version="1.1" xmlns="http://www.w3.org/2000/svg" xmlns:xlink="http://www.w3.org/1999/xlink">
    <!-- Generator: Sketch 52.6 (67491) - http://www.bohemiancoding.com/sketch -->
    <title>Untitled</title>
    <desc>Created with Sketch.</desc>
    <g id="Page-1" stroke="none" stroke-width="1" fill="none" fill-rule="evenodd">
        <g id="twitter-logo-silhouette" fill="#FFFFFF">
            <path d="M486,46.2614525 C468.112471,54.1118284 448.91941,59.4358634 428.753554,61.8127631 C449.344264,49.6002808 465.105936,30.2295708 472.576213,7.21879067 C453.261652,18.5283343 431.941941,26.7405148 409.225375,31.192286 C391.034492,11.9718035 365.159714,0 336.460256,0 C281.400813,0 236.757828,44.2164693 236.757828,98.7199906 C236.757828,106.450027 237.638506,113.999948 239.339509,121.219525 C156.492256,117.098097 83.0291063,77.7848684 33.8612318,18.0469767 C25.2664825,32.605684 20.3770921,49.5696061 20.3770921,67.6779322 C20.3770921,101.93848 37.9914444,132.16805 64.7167234,149.854009 C48.3777261,149.312875 33.0107304,144.861104 19.5575614,137.461411 L19.5575614,138.694693 C19.5575614,186.520557 53.9357646,226.435483 99.5197803,235.519928 C91.1680313,237.745813 82.3612522,238.979096 73.2503256,238.979096 C66.8124033,238.979096 60.5865108,238.34751 54.4821184,237.144116 C67.1761098,276.397569 103.984317,304.942388 147.594947,305.724987 C113.489921,332.194935 70.4867916,347.926362 23.7790977,347.926362 C15.7314963,347.926362 7.80460099,347.445004 0,346.57274 C44.1268074,374.636988 96.5140401,391 152.818661,391 C336.218843,391 436.468419,240.543508 436.468419,110.060209 L436.134095,97.2767044 C455.721833,83.4392469 472.667537,66.0537437 486,46.2614525 Z" id="Path"></path>
        </g>
    </g>
</svg>