<?xml version="1.0" encoding="UTF-8"?>
<svg width="549px" height="314px" viewBox="0 0 549 314" version="1.1" xmlns="http://www.w3.org/2000/svg" xmlns:xlink="http://www.w3.org/1999/xlink">
    <!-- Generator: Sketch 52.6 (67491) - http://www.bohemiancoding.com/sketch -->
    <title>Untitled</title>
    <desc>Created with Sketch.</desc>
    <g id="Page-1" stroke="none" stroke-width="1" fill="none" fill-rule="evenodd">
        <g id="vk-social-network-logo" fill="#FFFFFF">
            <path d="M545.451,283.298 C544.787,281.867 544.168,280.68 543.593,279.729 C534.079,262.594 515.898,241.562 489.061,216.627 L488.494,216.056 L488.21,215.776 L487.923,215.489 L487.635,215.489 C475.455,203.878 467.742,196.071 464.512,192.074 C458.602,184.46 457.278,176.753 460.508,168.944 C462.79,163.044 471.362,150.584 486.204,131.547 C494.011,121.458 500.194,113.372 504.76,107.28 C537.691,63.5 551.968,35.524 547.588,23.341 L545.887,20.494 C544.744,18.78 541.794,17.212 537.041,15.782 C532.277,14.355 526.188,14.119 518.763,15.07 L436.539,15.638 C435.207,15.166 433.305,15.21 430.827,15.782 C428.352,16.354 427.114,16.641 427.114,16.641 L425.683,17.356 L424.547,18.215 C423.595,18.783 422.548,19.782 421.405,21.21 C420.268,22.633 419.317,24.303 418.557,26.206 C409.605,49.237 399.427,70.65 388.004,90.444 C380.961,102.247 374.493,112.476 368.586,121.137 C362.687,129.795 357.738,136.174 353.744,140.263 C349.744,144.356 346.134,147.635 342.892,150.112 C339.655,152.59 337.184,153.637 335.473,153.254 C333.758,152.871 332.143,152.491 330.614,152.111 C327.951,150.397 325.809,148.066 324.194,145.116 C322.572,142.166 321.48,138.453 320.909,133.98 C320.341,129.504 320.005,125.654 319.909,122.417 C319.82,119.184 319.861,114.611 320.054,108.711 C320.252,102.808 320.341,98.814 320.341,96.72 C320.341,89.486 320.482,81.635 320.765,73.165 C321.053,64.695 321.286,57.984 321.481,53.04 C321.675,48.091 321.765,42.855 321.765,37.335 C321.765,31.815 321.429,27.486 320.765,24.344 C320.109,21.206 319.102,18.16 317.775,15.207 C316.44,12.257 314.486,9.975 311.922,8.355 C309.353,6.737 306.159,5.453 302.358,4.499 C292.269,2.216 279.422,0.981 263.811,0.789 C228.41,0.409 205.663,2.695 195.575,7.644 C191.578,9.735 187.961,12.592 184.727,16.206 C181.3,20.395 180.822,22.681 183.296,23.057 C194.718,24.768 202.804,28.861 207.563,35.332 L209.278,38.761 C210.612,41.235 211.944,45.615 213.277,51.895 C214.608,58.175 215.467,65.122 215.845,72.732 C216.795,86.629 216.795,98.525 215.845,108.421 C214.892,118.321 213.992,126.028 213.133,131.548 C212.274,137.068 210.99,141.541 209.278,144.966 C207.563,148.392 206.422,150.486 205.85,151.246 C205.279,152.006 204.803,152.485 204.425,152.673 C201.951,153.621 199.378,154.104 196.715,154.104 C194.048,154.104 190.814,152.77 187.008,150.104 C183.203,147.438 179.254,143.776 175.161,139.112 C171.068,134.447 166.452,127.928 161.311,119.554 C156.174,111.18 150.844,101.283 145.324,89.863 L140.757,81.581 C137.902,76.253 134.002,68.495 129.053,58.314 C124.101,48.129 119.724,38.277 115.919,28.76 C114.398,24.763 112.113,21.72 109.068,19.626 L107.639,18.767 C106.689,18.007 105.164,17.2 103.072,16.34 C100.977,15.481 98.791,14.865 96.505,14.486 L18.276,15.054 C10.282,15.054 4.858,16.865 2.002,20.482 L0.859,22.193 C0.288,23.146 0,24.668 0,26.763 C0,28.857 0.571,31.427 1.714,34.47 C13.134,61.31 25.553,87.195 38.971,112.129 C52.389,137.063 64.049,157.148 73.944,172.366 C83.841,187.595 93.929,201.968 104.208,215.478 C114.487,228.993 121.291,237.654 124.62,241.459 C127.953,245.271 130.571,248.121 132.474,250.024 L139.613,256.875 C144.181,261.444 150.889,266.916 159.74,273.291 C168.593,279.67 178.394,285.95 189.148,292.141 C199.904,298.322 212.417,303.366 226.694,307.267 C240.969,311.172 254.863,312.739 268.378,311.983 L301.212,311.983 C307.871,311.408 312.916,309.314 316.345,305.7 L317.481,304.269 C318.245,303.133 318.96,301.368 319.62,298.993 C320.288,296.614 320.62,293.993 320.62,291.142 C320.425,282.959 321.048,275.584 322.472,269.018 C323.895,262.454 325.517,257.505 327.331,254.172 C329.144,250.842 331.19,248.032 333.467,245.754 C335.749,243.471 337.375,242.088 338.329,241.612 C339.277,241.133 340.034,240.808 340.605,240.613 C345.173,239.091 350.549,240.565 356.741,245.042 C362.928,249.515 368.731,255.038 374.159,261.602 C379.584,268.172 386.102,275.543 393.714,283.726 C401.331,291.912 407.991,297.997 413.699,302 L419.407,305.426 C423.219,307.712 428.168,309.806 434.26,311.709 C440.341,313.611 445.669,314.087 450.244,313.136 L523.331,311.996 C530.56,311.996 536.185,310.799 540.175,308.424 C544.173,306.045 546.548,303.424 547.314,300.573 C548.078,297.719 548.119,294.481 547.459,290.861 C546.782,287.25 546.115,284.725 545.451,283.298 Z" id="Path"></path>
        </g>
    </g>
</svg>